P3
24
7
246
203 246 137 203 246 137 203 246 137 203 246 137 203 246 137 
203 246 137 203 246 137 203 246 137 203 246 137 203 246 137 
203 246 137 203 246 137 203 246 137 203 246 137 203 246 137 
203 246 137 203 246 137 203 246 137 203 246 137 203 246 137 
203 246 137 203 246 137 203 246 137 203 246 137 
203 246 137 0 0 0 0 0 0 0 0 0 0 0 0 203 246 137 203 246 137 0 0 0 
0 0 0 0 0 0 0 0 0 203 246 137 203 246 137 0 0 0 0 0 0 0 0 0 0 0 0 
203 246 137 203 246 137 0 0 0 0 0 0 0 0 0 0 0 0 203 246 137 
203 246 137 0 0 0 203 246 137 203 246 137 203 246 137 203 246 137 
203 246 137 0 0 0 203 246 137 203 246 137 203 246 137 203 246 137 
203 246 137 0 0 0 203 246 137 203 246 137 203 246 137 203 246 137 
203 246 137 0 0 0 190 98 42 190 98 42 0 0 0 203 246 137 
203 246 137 0 0 0 0 0 0 0 0 0 203 246 137 203 246 137 203 246 137 
0 0 0 0 0 0 0 0 0 203 246 137 203 246 137 203 246 137 0 0 0 0 0 0 
0 0 0 203 246 137 203 246 137 203 246 137 0 0 0 0 0 0 0 0 0 0 0 0 
203 246 137 
203 246 137 0 0 0 203 246 137 203 246 137 203 246 137 203 246 137 
203 246 137 0 0 0 203 246 137 203 246 137 203 246 137 203 246 137 
203 246 137 0 0 0 203 246 137 203 246 137 203 246 137 203 246 137 
203 246 137 0 0 0 203 246 137 203 246 137 203 246 137 203 246 137 
203 246 137 0 0 0 203 246 137 203 246 137 203 246 137 203 246 137 
203 246 137 0 0 0 0 0 0 0 0 0 0 0 0 203 246 137 203 246 137 0 0 0 
0 0 0 0 0 0 0 0 0 203 246 137 203 246 137 0 0 0 203 246 137 
203 246 137 203 246 137 203 246 137 
203 246 137 203 246 137 203 246 137 203 246 137 203 246 137 
203 246 137 203 246 137 203 246 137 203 246 137 203 246 137 
203 246 137 203 246 137 203 246 137 203 246 137 203 246 137 
203 246 137 203 246 137 203 246 137 203 246 137 203 246 137 
203 246 137 203 246 137 203 246 137 203 246 137 
